<svg width="70" height="70" viewBox="0 0 70 70" fill="none" xmlns="http://www.w3.org/2000/svg">
<path d="M34.9999 61.2501C31.316 58.1078 27.9013 54.6628 24.7916 50.9513C20.1249 45.3776 14.5833 37.0768 14.5833 29.1668C14.5791 20.9054 19.554 13.4558 27.1864 10.2942C34.8188 7.13251 43.6043 8.88204 49.4433 14.7263C53.2829 18.5489 55.4338 23.7487 55.4167 29.1668C55.4167 37.0768 49.8749 45.3776 45.2083 50.9513C42.0985 54.6628 38.6839 58.1078 34.9999 61.2501ZM34.9999 20.4168C31.8738 20.4168 28.9852 22.0845 27.4222 24.7918C25.8592 27.499 25.8592 30.8345 27.4222 33.5418C28.9852 36.249 31.8738 37.9168 34.9999 37.9168C39.8324 37.9168 43.7499 33.9992 43.7499 29.1668C43.7499 24.3343 39.8324 20.4168 34.9999 20.4168Z" fill="#0336FF"/>
</svg>
